<svg width="161" height="36" viewBox="0 0 161 36" fill="none" xmlns="http://www.w3.org/2000/svg">
<path d="M8.34736 17.3605C7.0678 14.7797 4.39458 14.578 2.53763 15.7597C1.0185 16.7231 0.343562 18.5908 0.833394 20.3222C1.13846 21.406 1.57417 22.4295 2.11847 23.3877C2.86442 24.6945 3.99713 25.74 5.35804 26.3826C6.87718 27.1065 8.2929 27.4715 9.55625 27.4715C11.1078 27.4715 12.3984 26.9107 13.498 26.0175C11.135 23.7362 9.6869 20.0665 8.34736 17.3605Z" fill="white"/>
<mask id="mask0_1781_12107" style="mask-type:luminance" maskUnits="userSpaceOnUse" x="1" y="5" width="8" height="8">
<path d="M1.51953 5.71875H8.75566V12.8918H1.51953V5.71875Z" fill="white"/>
</mask>
<g mask="url(#mask0_1781_12107)">
<path d="M8.69936 9.29614C8.69936 9.413 8.6935 9.5302 8.68212 9.64671C8.6704 9.76322 8.65351 9.87904 8.63042 9.99383C8.60767 10.1086 8.5794 10.2224 8.54527 10.3344C8.51115 10.4464 8.47185 10.5567 8.42704 10.665C8.38223 10.7732 8.33224 10.879 8.27674 10.9825C8.22159 11.0855 8.16161 11.1858 8.09646 11.2834C8.03131 11.3809 7.96168 11.4747 7.88722 11.5654C7.81311 11.656 7.73452 11.7425 7.65144 11.8256C7.56871 11.9083 7.48185 11.9869 7.39153 12.0614C7.30087 12.1355 7.20677 12.2051 7.10956 12.2703C7.01201 12.3354 6.9117 12.3958 6.80828 12.4509C6.70487 12.5061 6.59939 12.5561 6.49081 12.6009C6.38257 12.6457 6.27261 12.6853 6.16058 12.7191C6.0482 12.7532 5.93479 12.7815 5.82 12.8046C5.70487 12.8273 5.58939 12.8446 5.47254 12.856C5.35602 12.8673 5.23917 12.8732 5.12197 12.8732C5.00477 12.8732 4.88791 12.8673 4.7714 12.856C4.65489 12.8446 4.53906 12.8273 4.42428 12.8046C4.30914 12.7815 4.19573 12.7532 4.0837 12.7191C3.97133 12.6853 3.86137 12.6457 3.75313 12.6009C3.64489 12.5561 3.53906 12.5061 3.43565 12.4509C3.33224 12.3958 3.23193 12.3354 3.13472 12.2703C3.03717 12.2051 2.94306 12.1355 2.85275 12.0614C2.76209 11.9869 2.67522 11.9083 2.59249 11.8256C2.50976 11.7425 2.43117 11.656 2.35671 11.5654C2.2826 11.4747 2.21262 11.3809 2.14782 11.2834C2.08267 11.1858 2.02234 11.0855 1.96719 10.9825C1.91204 10.879 1.86205 10.7732 1.81724 10.665C1.77209 10.5567 1.73279 10.4464 1.69866 10.3344C1.66488 10.2224 1.63627 10.1086 1.61352 9.99383C1.59077 9.87904 1.57353 9.76322 1.56216 9.64671C1.55044 9.5302 1.54492 9.413 1.54492 9.29614C1.54492 9.17894 1.55044 9.06208 1.56216 8.94523C1.57353 8.82871 1.59077 8.71289 1.61352 8.5981C1.63627 8.48332 1.66488 8.36956 1.69866 8.25753C1.73279 8.1455 1.77209 8.03519 1.81724 7.92696C1.86205 7.81872 1.91204 7.71289 1.96719 7.60982C2.02234 7.50641 2.08267 7.4061 2.14782 7.30855C2.21262 7.211 2.2826 7.11723 2.35671 7.02658C2.43117 6.93592 2.50976 6.8494 2.59249 6.76667C2.67522 6.68359 2.76209 6.605 2.85275 6.53088C2.94306 6.45643 3.03717 6.3868 3.13472 6.32165C3.23193 6.2565 3.33224 6.19652 3.43565 6.14102C3.53906 6.08587 3.64489 6.03588 3.75313 5.99107C3.86137 5.94626 3.97133 5.90696 4.0837 5.87283C4.19573 5.83871 4.30914 5.81044 4.42428 5.78735C4.53906 5.7646 4.65489 5.74736 4.7714 5.73599C4.88791 5.72461 5.00477 5.71875 5.12197 5.71875C5.23917 5.71875 5.35602 5.72461 5.47254 5.73599C5.58939 5.74736 5.70487 5.7646 5.82 5.78735C5.93479 5.81044 6.0482 5.83871 6.16058 5.87283C6.27261 5.90696 6.38257 5.94626 6.49081 5.99107C6.59939 6.03588 6.70487 6.08587 6.80828 6.14102C6.9117 6.19652 7.01201 6.2565 7.10956 6.32165C7.20677 6.3868 7.30087 6.45643 7.39153 6.53088C7.48185 6.605 7.56871 6.68359 7.65144 6.76667C7.73452 6.8494 7.81311 6.93592 7.88722 7.02658C7.96168 7.11723 8.03131 7.211 8.09646 7.30855C8.16161 7.4061 8.22159 7.50641 8.27674 7.60982C8.33224 7.71289 8.38223 7.81872 8.42704 7.92696C8.47185 8.03519 8.51115 8.1455 8.54527 8.25753C8.5794 8.36956 8.60767 8.48332 8.63042 8.5981C8.65351 8.71289 8.6704 8.82871 8.68212 8.94523C8.6935 9.06208 8.69936 9.17894 8.69936 9.29614Z" fill="white"/>
</g>
<path d="M25.4616 15.7592C23.605 14.5775 20.9259 14.7737 19.6518 17.36C17.0765 22.5434 14.12 31.2659 5.07617 26.9698C7.4719 29.0336 10.5919 30.2804 14.0003 30.2804C20.2565 30.2804 25.5322 26.077 27.1603 20.3435C27.645 18.612 26.9807 16.7227 25.4616 15.7592Z" fill="white"/>
<mask id="mask1_1781_12107" style="mask-type:luminance" maskUnits="userSpaceOnUse" x="19" y="5" width="8" height="8">
<path d="M19.2578 5.71875H26.4939V12.8918H19.2578V5.71875Z" fill="white"/>
</mask>
<g mask="url(#mask1_1781_12107)">
<path d="M26.4455 9.29614C26.4455 9.413 26.4396 9.5302 26.4282 9.64671C26.4168 9.76322 26.3996 9.87904 26.3769 9.99383C26.3538 10.1086 26.3255 10.2224 26.2914 10.3344C26.2572 10.4464 26.2179 10.5567 26.1731 10.665C26.1283 10.7732 26.0783 10.879 26.0232 10.9825C25.9677 11.0855 25.9077 11.1858 25.8426 11.2834C25.7774 11.3809 25.7078 11.4747 25.6333 11.5654C25.5592 11.656 25.4806 11.7425 25.3975 11.8256C25.3148 11.9083 25.2283 11.9869 25.1376 12.0614C25.047 12.1355 24.9529 12.2051 24.8557 12.2703C24.7581 12.3354 24.6578 12.3958 24.5544 12.4509C24.4513 12.5061 24.3455 12.5561 24.2372 12.6009C24.129 12.6457 24.0187 12.6853 23.9067 12.7191C23.7946 12.7532 23.6809 12.7815 23.5661 12.8046C23.4513 12.8273 23.3355 12.8446 23.219 12.856C23.1021 12.8673 22.9853 12.8732 22.8681 12.8732C22.7509 12.8732 22.634 12.8673 22.5175 12.856C22.401 12.8446 22.2852 12.8273 22.1704 12.8046C22.0552 12.7815 21.9418 12.7532 21.8298 12.7191C21.7178 12.6853 21.6075 12.6457 21.4992 12.6009C21.391 12.5561 21.2852 12.5061 21.1817 12.4509C21.0787 12.3958 20.978 12.3354 20.8808 12.2703C20.7833 12.2051 20.6895 12.1355 20.5988 12.0614C20.5082 11.9869 20.4217 11.9083 20.3386 11.8256C20.2559 11.7425 20.1773 11.656 20.1028 11.5654C20.0287 11.4747 19.9591 11.3809 19.8939 11.2834C19.8288 11.1858 19.7684 11.0855 19.7133 10.9825C19.6581 10.879 19.6081 10.7732 19.5633 10.665C19.5185 10.5567 19.4789 10.4464 19.4451 10.3344C19.411 10.2224 19.3827 10.1086 19.3596 9.99383C19.3369 9.87904 19.3196 9.76322 19.3083 9.64671C19.2965 9.5302 19.291 9.413 19.291 9.29614C19.291 9.17894 19.2965 9.06208 19.3083 8.94523C19.3196 8.82871 19.3369 8.71289 19.3596 8.5981C19.3827 8.48332 19.411 8.36956 19.4451 8.25753C19.4789 8.1455 19.5185 8.03519 19.5633 7.92696C19.6081 7.81872 19.6581 7.71289 19.7133 7.60982C19.7684 7.50641 19.8288 7.4061 19.8939 7.30855C19.9591 7.211 20.0287 7.11723 20.1028 7.02658C20.1773 6.93592 20.2559 6.8494 20.3386 6.76667C20.4217 6.68359 20.5082 6.605 20.5988 6.53088C20.6895 6.45643 20.7833 6.3868 20.8808 6.32165C20.978 6.2565 21.0787 6.19652 21.1817 6.14102C21.2852 6.08587 21.391 6.03588 21.4992 5.99107C21.6075 5.94626 21.7178 5.90696 21.8298 5.87283C21.9418 5.83871 22.0552 5.81044 22.1704 5.78735C22.2852 5.7646 22.401 5.74736 22.5175 5.73599C22.634 5.72461 22.7509 5.71875 22.8681 5.71875C22.9853 5.71875 23.1021 5.72461 23.219 5.73599C23.3355 5.74736 23.4513 5.7646 23.5661 5.78735C23.6809 5.81044 23.7946 5.83871 23.9067 5.87283C24.0187 5.90696 24.129 5.94626 24.2372 5.99107C24.3455 6.03588 24.4513 6.08587 24.5544 6.14102C24.6578 6.19652 24.7581 6.2565 24.8557 6.32165C24.9529 6.3868 25.047 6.45643 25.1376 6.53088C25.2283 6.605 25.3148 6.68359 25.3975 6.76667C25.4806 6.8494 25.5592 6.93592 25.6333 7.02658C25.7078 7.11723 25.7774 7.211 25.8426 7.30855C25.9077 7.4061 25.9677 7.50641 26.0232 7.60982C26.0783 7.71289 26.1283 7.81872 26.1731 7.92696C26.2179 8.03519 26.2572 8.1455 26.2914 8.25753C26.3255 8.36956 26.3538 8.48332 26.3769 8.5981C26.3996 8.71289 26.4168 8.82871 26.4282 8.94523C26.4396 9.06208 26.4455 9.17894 26.4455 9.29614Z" fill="white"/>
</g>
<mask id="mask2_1781_12107" style="mask-type:luminance" maskUnits="userSpaceOnUse" x="7" y="10" width="14" height="10">
<path d="M7.66406 10.0469H20.3714V19.5105H7.66406V10.0469Z" fill="white"/>
</mask>
<g mask="url(#mask2_1781_12107)">
<path d="M7.77403 15.6338C7.86848 15.3305 7.86848 15.3305 8.02532 14.982C8.02187 14.964 8.0198 14.9464 8.0198 14.9285C8.01946 14.9106 8.02015 14.8985 8.02153 14.8865C7.88985 14.68 7.88985 14.68 7.79126 14.4914C7.78575 14.5225 7.77747 14.5407 7.76886 14.5466C7.7561 14.5459 7.74783 14.5018 7.75059 14.4394C7.75334 14.3832 7.7661 14.3342 7.7792 14.3287C7.79161 14.3298 7.80023 14.368 7.7985 14.4235C8.0198 14.4194 8.0198 14.4194 8.35383 14.419C8.44724 13.8858 8.44724 13.8858 8.56755 13.3608C8.55445 13.3398 8.54893 13.3032 8.55479 13.2639C8.56479 13.196 8.60305 13.1312 8.63994 13.1188C8.65441 13.1178 8.66717 13.1219 8.67751 13.1309C9.22284 12.6752 9.22284 12.6752 9.89881 12.1998C10.1398 11.902 10.1398 11.902 10.3904 11.609C10.4931 11.4066 10.4931 11.4066 10.5965 11.2108C10.5831 11.2036 10.5758 11.1888 10.5827 11.1667C10.5889 11.1367 10.6213 11.1054 10.6544 11.0974C10.6879 11.0898 10.7103 11.1078 10.7003 11.1412C10.6944 11.1715 10.6627 11.2026 10.6296 11.2098C10.6255 11.2126 10.6248 11.2119 10.6241 11.2112C10.5179 11.4104 10.5179 11.4104 10.4162 11.6128C10.4131 11.6166 10.4131 11.6166 10.4107 11.6207C10.1608 11.912 10.1608 11.912 9.92363 12.2043C10.2511 12.5545 10.2511 12.5545 10.6386 12.9496C10.7409 12.5356 10.7409 12.5356 10.8509 12.135C10.7964 12.1271 10.7647 12.0781 10.772 12.0175C10.7833 11.9416 10.8523 11.871 10.9267 11.8589C10.9636 11.8534 10.9936 11.8651 11.0146 11.8861C11.5872 11.4239 12.1732 10.9919 12.7596 10.5966C12.7458 10.5807 12.7399 10.5607 12.7427 10.5393C12.7471 10.5059 12.7668 10.4759 12.8023 10.4525C12.6517 10.2936 12.6517 10.2936 12.511 10.1457C12.5065 10.1474 12.4969 10.1498 12.4872 10.1512C12.4476 10.1557 12.4207 10.1374 12.4273 10.1102C12.4293 10.085 12.4634 10.0605 12.5038 10.0554C12.5438 10.0509 12.57 10.0688 12.5676 10.0947C12.561 10.1081 12.5545 10.1195 12.5417 10.1291C12.6813 10.277 12.6813 10.277 12.8306 10.4363C12.8516 10.4266 12.8781 10.4197 12.9009 10.4184C12.9833 10.4128 13.0481 10.457 13.0432 10.5183C13.0415 10.5297 13.0391 10.5407 13.0329 10.5518C13.479 10.681 13.479 10.681 13.9416 10.8299C14.9347 10.7758 14.9347 10.7758 15.874 10.7782C15.8681 10.7169 15.9229 10.6741 15.9995 10.6838C16.0808 10.6962 16.1494 10.7538 16.1618 10.8179C16.1649 10.831 16.1639 10.8423 16.1587 10.8513C16.8754 11.2226 16.8754 11.2226 17.5462 11.6193C17.6789 11.4938 17.6789 11.4938 17.7978 11.3732C17.792 11.136 17.792 11.136 17.7785 10.9144C17.7358 10.8885 17.6965 10.843 17.683 10.8017C17.6651 10.7482 17.6975 10.721 17.7506 10.7369C17.8071 10.7572 17.8671 10.8158 17.8854 10.8685C17.9026 10.9216 17.873 10.9509 17.8195 10.9351C17.814 10.9327 17.8089 10.9302 17.8037 10.9278C17.8161 11.1347 17.8161 11.1347 17.8237 11.3567C18.2004 11.145 18.2004 11.145 18.4886 10.9957C18.4855 10.9909 18.4828 10.9854 18.4803 10.9799C18.471 10.9568 18.4776 10.943 18.5 10.9551C18.5224 10.9675 18.5462 10.994 18.5558 11.0171C18.5648 11.0402 18.5582 11.0537 18.5358 11.0412C18.5286 11.0395 18.5193 11.0323 18.5069 11.0188C18.2239 11.1691 18.2239 11.1691 17.8519 11.3797C18.2366 11.4718 18.2366 11.4718 18.5745 11.5704C18.5579 11.5131 18.5796 11.4835 18.6231 11.5014C18.6665 11.5194 18.7172 11.5817 18.7351 11.639C18.7554 11.7003 18.7351 11.7345 18.6903 11.7162C18.6482 11.6969 18.6034 11.6459 18.5813 11.5931C18.227 11.4928 18.227 11.4928 17.8213 11.4001C17.4304 11.7848 17.4304 11.7848 16.9502 12.2588C16.9671 12.2805 16.9809 12.3094 16.9867 12.3405C17.7995 12.5049 17.7995 12.5049 18.4893 12.6862C18.4876 12.6259 18.5196 12.588 18.5669 12.599C18.6155 12.6093 18.6644 12.6714 18.6792 12.7382C18.9836 12.833 19.2463 12.9213 19.4748 13.0168C19.4676 12.9585 19.4848 12.9282 19.5127 12.9371C19.5321 12.9427 19.5541 12.9726 19.5703 13.0106C19.6503 12.9533 19.6503 12.9533 19.721 12.9047C19.7192 12.8989 19.7178 12.893 19.7165 12.8872C19.7085 12.8517 19.7134 12.8241 19.7282 12.8317C19.7451 12.8454 19.7644 12.8841 19.7723 12.9196C19.7799 12.9554 19.7758 12.9826 19.7606 12.9744C19.7499 12.9654 19.7392 12.9496 19.7316 12.933C19.6603 12.9813 19.6603 12.9813 19.5803 13.0381C19.5841 13.0492 19.5869 13.0605 19.5907 13.0781C19.602 13.1419 19.5862 13.1829 19.5558 13.1736C19.551 13.1691 19.5483 13.1698 19.5438 13.1653C19.5324 13.7276 19.5324 13.7276 19.4793 14.327C19.5028 14.3525 19.52 14.4011 19.5217 14.4511C19.5227 14.4845 19.5176 14.518 19.5076 14.5407C19.7189 15.0695 19.7189 15.0695 19.8675 15.5562C19.8761 15.5397 19.8854 15.529 19.8937 15.5297C19.9074 15.5256 19.9178 15.539 19.9233 15.5635C20.087 15.2453 20.087 15.2453 20.2063 14.9547C20.2049 14.9423 20.2046 14.9234 20.2049 14.9109C20.2053 14.8613 20.2149 14.8175 20.226 14.8175C20.2366 14.8175 20.2449 14.8551 20.2446 14.9116C20.2439 14.9616 20.2346 15.0054 20.2239 15.0051C20.2173 15.0047 20.2122 14.992 20.2091 14.9733C20.0901 15.2643 20.0901 15.2643 19.9264 15.588C19.9274 15.5945 19.9274 15.6062 19.9271 15.6186C20.2215 15.4687 20.2215 15.4687 20.3425 15.3467C20.3452 15.3149 20.3476 15.296 20.3494 15.2898C20.3504 15.2898 20.3494 15.3153 20.3466 15.347C20.3438 15.3787 20.3411 15.4042 20.34 15.4042C20.3383 15.4104 20.3394 15.3911 20.3411 15.3656C20.2194 15.4935 20.2194 15.4935 19.9257 15.6424C19.9243 15.6541 19.9223 15.6662 19.9195 15.6779C20.1039 15.9816 20.1039 15.9816 20.1829 16.2102C20.1894 16.1857 20.1973 16.1615 20.2015 16.1557C20.2087 16.1443 20.206 16.1764 20.1956 16.226C20.1849 16.276 20.1708 16.3249 20.1639 16.3363C20.1563 16.3477 20.1591 16.3156 20.1694 16.266C20.1722 16.2536 20.1749 16.2412 20.1767 16.235C20.0988 15.9995 20.0988 15.9995 19.9133 15.7014C19.9023 15.7358 19.8868 15.7638 19.8719 15.7672C19.8585 15.7713 19.8478 15.7572 19.8423 15.7324C18.914 16.9358 18.914 16.9358 17.4497 18.2446C17.4483 18.257 17.45 18.2657 17.4476 18.277C17.4311 18.3442 17.3676 18.4063 17.3011 18.4215C17.2311 18.4387 17.1877 18.3977 17.2039 18.3298C17.2066 18.3187 17.2101 18.3084 17.2139 18.2984C16.7596 18.0002 16.2346 17.6448 15.6486 17.2319C15.8206 17.9871 15.8206 17.9871 15.9588 18.6486C16.2839 18.7986 16.2839 18.7986 16.5838 18.9292C16.6027 18.9134 16.6244 18.902 16.6499 18.8965C16.6965 18.8875 16.7247 18.9123 16.7147 18.9509C16.7085 18.9864 16.6623 19.0254 16.6155 19.035C16.5731 19.0419 16.5417 19.0192 16.5479 18.9826C16.5531 18.9716 16.5538 18.964 16.5638 18.9527C16.2749 18.8293 16.2749 18.8293 15.964 18.6876C16.0029 19.064 16.0029 19.064 16.0333 19.3973C16.0695 19.3925 16.0891 19.4108 16.0839 19.4363C16.0784 19.4621 16.045 19.487 16.0088 19.4928C15.9722 19.4987 15.9488 19.4818 15.954 19.4556C15.9571 19.4373 15.9764 19.418 15.9991 19.4077C15.9691 19.0699 15.9691 19.0699 15.9302 18.6879C15.5272 19.0102 15.5272 19.0102 15.1329 19.3053C15.1401 19.3153 15.1432 19.3277 15.1422 19.3415C15.1411 19.377 15.096 19.4097 15.0433 19.4139C14.9912 19.4177 14.9519 19.3915 14.9536 19.3553C14.9598 19.3177 15.0043 19.2846 15.0557 19.2812C15.0788 19.2791 15.0939 19.2829 15.1098 19.2894C15.5141 18.9864 15.5141 18.9864 15.924 18.6569C15.7795 17.9816 15.7795 17.9816 15.601 17.2088C15.1401 17.316 15.1401 17.316 14.6706 17.417C14.6699 17.4263 14.6723 17.4346 14.672 17.4439C14.6668 17.5711 14.5541 17.6745 14.4131 17.6776C14.3111 17.6793 14.2253 17.6255 14.1856 17.5466C13.4455 17.7793 13.4455 17.7793 12.7344 17.9813C12.7375 17.9913 12.7406 18.0023 12.7403 18.013C12.7471 18.0912 12.6796 18.1488 12.5924 18.1433C12.5045 18.1371 12.4307 18.0712 12.4245 17.994C12.4193 17.9489 12.439 17.9099 12.4738 17.8861C11.744 16.8206 11.744 16.8206 11.0536 15.6886C11.0498 15.6896 11.046 15.6907 11.0412 15.689C10.9895 15.6883 10.9426 15.6559 10.915 15.6076C10.5227 15.9847 10.5227 15.9847 10.1701 16.3339C10.1849 16.3591 10.1956 16.3901 10.198 16.4204C10.2056 16.5025 10.156 16.5614 10.0894 16.5545C10.047 16.5497 10.006 16.5159 9.98189 16.4742C9.45517 16.741 9.45517 16.741 9.03601 16.9547C9.04187 16.9699 9.04428 16.9806 9.04807 16.9964C9.06014 17.0623 9.0367 17.1092 8.99223 17.0933C8.95052 17.0819 8.90571 17.0171 8.89054 16.9458C8.88089 16.8958 8.89226 16.8617 8.91398 16.8468C8.76369 16.3963 8.6327 15.9392 8.52205 15.479C8.29006 15.2257 8.29006 15.2257 8.10081 14.9975C8.09357 15.0271 8.08047 15.0512 8.06496 15.0461C8.07289 15.5521 8.07289 15.5521 8.10771 16.0375C8.12735 16.0519 8.14804 16.1023 8.15734 16.1615C8.16631 16.2212 8.15596 16.2667 8.13184 16.2543C8.16768 16.5011 8.16768 16.5011 8.20871 16.7365C8.22904 16.7551 8.25283 16.8048 8.26593 16.8582C8.2804 16.9175 8.27317 16.9527 8.24904 16.9358C8.22766 16.924 8.19699 16.8634 8.18389 16.8093C8.16941 16.7493 8.1763 16.7148 8.19802 16.7272C8.15665 16.4918 8.15665 16.4918 8.12253 16.2501C8.10219 16.2301 8.08185 16.1791 8.07323 16.125C8.0722 16.1191 8.07151 16.1129 8.07082 16.1071C7.91157 15.9206 7.91157 15.9206 7.79023 15.7455C7.79195 15.7831 7.78747 15.8027 7.7792 15.7979C7.77368 15.7924 7.76782 15.7803 7.76231 15.762C7.74955 16.0344 7.74955 16.0344 7.77437 16.2763C7.77747 16.2887 7.78196 16.3074 7.78609 16.326C7.79678 16.3698 7.80367 16.4008 7.79988 16.3884C7.79988 16.3884 7.79678 16.3763 7.79402 16.3701C7.78299 16.327 7.77265 16.2832 7.76265 16.2398C7.75955 16.2208 7.75817 16.2146 7.75989 16.2208C7.76196 16.227 7.76506 16.2395 7.76955 16.2577C7.74507 16.0157 7.74507 16.0157 7.75748 15.7438C7.75334 15.7255 7.7499 15.7069 7.74714 15.6817C7.74645 15.6755 7.74645 15.6755 7.74576 15.6693C7.71956 15.6221 7.71956 15.6221 7.69647 15.5738C7.69785 15.6052 7.69578 15.6248 7.69026 15.6193C7.68406 15.6135 7.6751 15.57 7.66958 15.5194C7.66406 15.4625 7.6651 15.4239 7.67165 15.4297C7.6782 15.4352 7.68785 15.479 7.69337 15.5359C7.69405 15.5421 7.69405 15.5421 7.6944 15.5483C7.71749 15.5966 7.71749 15.5966 7.74404 15.6441C7.743 15.6124 7.74645 15.5866 7.75507 15.5921C7.76127 15.5976 7.76851 15.6155 7.77403 15.6338ZM8.94431 16.8465C8.94535 16.8461 8.94845 16.8506 8.94948 16.8503C8.92329 16.1347 8.92329 16.1347 8.94638 15.3611C8.89088 15.336 8.84814 15.247 8.84504 15.1491C8.844 15.1133 8.84849 15.0819 8.85676 15.0557C8.5903 14.7489 8.5903 14.7489 8.37037 14.4708C8.5772 15.649 8.5772 15.649 8.93087 16.8461C8.93466 16.8444 8.94052 16.8479 8.94431 16.8465ZM8.96879 16.8599C8.98913 16.8751 9.0074 16.8965 9.02291 16.9251C9.44104 16.7096 9.44104 16.7096 9.96569 16.4387C9.96155 16.4266 9.95741 16.4094 9.95535 16.3915C9.95328 16.3646 9.95604 16.3356 9.965 16.3143C9.48689 15.8017 9.48689 15.8017 9.07427 15.3074C9.05117 15.3498 9.01739 15.3732 8.97982 15.3725C8.97499 15.368 8.97086 15.3684 8.96707 15.3687C8.94225 16.1405 8.94225 16.1405 8.96879 16.8599ZM8.06944 16.0826C8.06979 16.045 8.08047 16.0244 8.09667 16.0275C8.06255 15.5473 8.06255 15.5473 8.05497 15.0464C8.04566 15.0409 8.03738 15.0233 8.03118 15.0057C7.87399 15.3546 7.87399 15.3546 7.77954 15.6583C7.78196 15.6707 7.7854 15.6893 7.78747 15.7079C7.78816 15.7141 7.78885 15.7203 7.7885 15.7203C7.90984 15.8958 7.90984 15.8958 8.06944 16.0826ZM8.06151 14.802C8.07461 14.802 8.08668 14.821 8.0953 14.8503C8.20698 14.6521 8.20698 14.6521 8.33659 14.4518C8.01291 14.449 8.01291 14.449 7.79712 14.4483C7.79643 14.4545 7.79609 14.4608 7.79505 14.467C7.89399 14.6555 7.89399 14.6555 8.02566 14.8627C8.03325 14.8268 8.046 14.802 8.06151 14.802ZM8.1015 14.8741C8.10495 14.8916 8.10702 14.9089 8.10736 14.9268C8.10736 14.9444 8.10667 14.9561 8.10529 14.9678C8.28902 15.1915 8.28902 15.1915 8.51274 15.4359C8.42036 14.943 8.42036 14.943 8.35417 14.4583C8.21801 14.6696 8.21801 14.6696 8.1015 14.8741ZM19.4507 14.3129C19.4552 14.3125 19.46 14.3174 19.4638 14.3174C19.5172 13.7134 19.5172 13.7134 19.5293 13.1512C19.5079 13.1278 19.4879 13.0857 19.4779 13.0402C19.1243 12.9068 19.1243 12.9068 18.6834 12.77C18.6868 12.8299 18.6579 12.8696 18.6141 12.8658C18.6606 13.5028 18.6765 14.1746 18.6579 14.8582C18.7041 14.8682 18.7423 14.9116 18.7637 14.9692C19.105 14.7193 19.105 14.7193 19.3921 14.4866C19.3893 14.4708 19.388 14.4601 19.3873 14.4435C19.3845 14.368 19.4131 14.3108 19.4507 14.3129ZM19.4959 14.558C19.4869 14.5693 19.4766 14.5807 19.4645 14.5811C19.4497 15.1343 19.4497 15.1343 19.4076 15.6865C19.4348 15.6907 19.4528 15.7331 19.4531 15.7837C19.6637 15.7162 19.6637 15.7162 19.8395 15.6541C19.843 15.6248 19.8495 15.5962 19.8585 15.5731C19.7085 15.0923 19.7085 15.0923 19.4959 14.558ZM19.4486 14.5766C19.4286 14.5721 19.4111 14.5456 19.3997 14.5135C19.1136 14.75 19.1136 14.75 18.773 14.9982C18.7782 15.0226 18.7809 15.0516 18.7806 15.0754C18.7792 15.1381 18.7613 15.1943 18.733 15.2353C18.9064 15.5752 18.9064 15.5752 19.056 15.892C19.1898 15.861 19.1898 15.861 19.3152 15.8251C19.3225 15.7607 19.3559 15.7 19.3911 15.6893C19.4338 15.1333 19.4338 15.1333 19.4486 14.5766ZM19.8392 15.7083C19.8378 15.7017 19.8378 15.69 19.8382 15.6779C19.662 15.7448 19.662 15.7448 19.451 15.8172C19.4438 15.8782 19.4111 15.9396 19.3773 15.9492C19.34 16.2129 19.34 16.2129 19.2983 16.4666C19.5969 16.0778 19.5969 16.0778 19.8392 15.7083ZM17.3531 18.1826C17.3814 18.1767 17.4018 18.1836 17.4193 18.1943C18.3073 17.0719 18.3073 17.0719 19.026 15.933C18.2683 16.1033 18.2683 16.1033 17.3042 16.2653C17.2952 16.3694 17.2301 16.4594 17.1456 16.4966C17.259 17.4046 17.259 17.4046 17.3145 18.1974C17.3276 18.1905 17.3383 18.1881 17.3531 18.1826ZM17.4355 18.2102C17.4386 18.2133 17.4417 18.2164 17.4417 18.2229C18.4697 17.3549 18.4697 17.3549 19.2728 16.499C19.1708 16.2295 19.1708 16.2295 19.0474 15.9382C18.3273 17.0826 18.3273 17.0826 17.4355 18.2102ZM17.2311 18.2684C17.2449 18.2484 17.2652 18.2281 17.2849 18.2146C17.2263 17.4211 17.2263 17.4211 17.1115 16.5107C17.1008 16.5128 17.0891 16.5149 17.0774 16.5163C17.0029 16.5225 16.9405 16.4835 16.9047 16.4249C16.2945 16.8075 16.2945 16.8075 15.6524 17.1864C16.5169 17.7931 16.5169 17.7931 17.2311 18.2684ZM19.3607 15.9513C19.3335 15.9458 19.3142 15.9082 19.3132 15.8582C19.1949 15.8892 19.1949 15.8892 19.0688 15.9216C19.1863 16.2005 19.1863 16.2005 19.2835 16.4618C19.3252 16.2088 19.3252 16.2088 19.3607 15.9513ZM18.591 12.8592C18.5741 12.8503 18.5569 12.8358 18.5431 12.8199C18.2349 13.2415 18.2349 13.2415 17.8595 13.7103C17.8885 13.7524 17.9074 13.8058 17.9109 13.8634C17.9136 13.9209 17.8992 13.9737 17.8719 14.0119C18.2239 14.4759 18.2239 14.4759 18.5358 14.9116C18.5627 14.8799 18.5969 14.8575 18.6337 14.8579C18.6489 13.8324 18.6489 13.8324 18.591 12.8592ZM18.5241 12.7958C18.5083 12.7703 18.4969 12.7427 18.4928 12.7172C17.8033 12.539 17.8033 12.539 16.9881 12.3742C16.986 12.4104 16.9688 12.4387 16.9447 12.458C17.2966 13.0416 17.2966 13.0416 17.6241 13.63C17.6493 13.6179 17.6779 13.6128 17.7082 13.6152C17.7571 13.62 17.802 13.6438 17.8378 13.6831C18.2129 13.2108 18.2129 13.2108 18.5241 12.7958ZM11.0315 11.9082C11.0432 11.9258 11.046 11.9509 11.0429 11.9771C11.0412 11.9923 11.0353 12.0092 11.0308 12.0216C11.5582 12.2222 11.5582 12.2222 12.1367 12.4539C12.1808 12.3828 12.2628 12.3308 12.3531 12.3253C12.36 12.3253 12.3673 12.3253 12.3745 12.3256C12.6082 11.4225 12.6082 11.4225 12.8399 10.6397C12.8161 10.6359 12.7957 10.6276 12.7789 10.6162C11.894 11.226 11.894 11.226 11.0315 11.9082ZM11.0122 12.054C10.9819 12.0978 10.9367 12.1285 10.8885 12.135C10.8843 12.1367 10.8843 12.1367 10.8826 12.1353C10.7706 12.5421 10.7706 12.5421 10.6672 12.9609C11.3535 12.7741 11.3535 12.7741 12.096 12.5952C12.0967 12.5873 12.0977 12.5793 12.0963 12.5731C12.0984 12.5435 12.1056 12.5156 12.1184 12.4883C11.5382 12.2574 11.5382 12.2574 11.0122 12.054ZM13.0164 10.5773C13.0057 10.5897 12.995 10.6007 12.9795 10.61C13.5669 11.3963 13.5669 11.3963 14.2284 12.3425C14.2532 12.3229 14.2825 12.3084 14.3142 12.2994C14.1101 11.5342 14.1101 11.5342 13.9219 10.8554C13.4614 10.7065 13.4614 10.7065 13.0164 10.5773ZM12.9478 10.6266C12.9278 10.6348 12.9026 10.6407 12.8805 10.6421C12.8805 10.6414 12.8764 10.6421 12.8719 10.6424C12.6448 11.4256 12.6448 11.4256 12.4124 12.3298C12.5127 12.3494 12.5848 12.4315 12.5865 12.5349C13.3545 12.53 13.3545 12.53 14.138 12.5431C14.1363 12.5369 14.1363 12.5311 14.137 12.5249C14.1363 12.4649 14.1591 12.4104 14.1987 12.3691C13.5348 11.4173 13.5348 11.4173 12.9478 10.6266ZM16.1508 10.8754C16.1418 10.892 16.1253 10.9037 16.1056 10.9109C16.4514 11.5197 16.4514 11.5197 16.793 12.1864C16.8054 12.1853 16.8171 12.1846 16.8313 12.1877C16.8633 12.1895 16.8971 12.2067 16.9236 12.2301C17.247 11.9171 17.247 11.9171 17.5307 11.6393C16.8633 11.245 16.8633 11.245 16.1508 10.8754ZM16.0732 10.9161C16.0622 10.9178 16.0519 10.9185 16.0377 10.9165C16.0098 10.9134 15.9809 10.9023 15.9547 10.8865C15.3138 11.5518 15.3138 11.5518 14.5703 12.3598C14.6103 12.3959 14.6386 12.4432 14.6468 12.4952C15.7206 12.3863 15.7206 12.3863 16.7034 12.3205C16.7041 12.3198 16.7041 12.3198 16.7027 12.3163C16.6968 12.2608 16.7223 12.2164 16.7647 12.1971C16.4204 11.5269 16.4204 11.5269 16.0732 10.9161ZM15.9257 10.8654C15.9088 10.8496 15.894 10.8296 15.885 10.8079C14.945 10.8037 14.945 10.8037 13.9619 10.8575C14.1498 11.5318 14.1498 11.5318 14.3535 12.2915C14.3669 12.2901 14.3773 12.2891 14.39 12.2894C14.4472 12.2905 14.4986 12.3074 14.5396 12.3353C15.2849 11.5294 15.2849 11.5294 15.9257 10.8654ZM8.68613 13.1512C8.69095 13.1702 8.69371 13.1884 8.69026 13.216C9.05048 13.156 9.05048 13.156 9.48516 13.0988C9.50757 12.9933 9.58203 12.9047 9.66372 12.8885C9.67062 12.8865 9.67613 12.8889 9.68303 12.8868C9.77954 12.559 9.77954 12.559 9.88192 12.2408C9.22043 12.7083 9.22043 12.7083 8.68613 13.1512ZM8.6844 13.2491C8.68475 13.2491 8.68337 13.2546 8.68165 13.2598C8.93397 13.3501 8.93397 13.3501 9.23215 13.4518C9.35624 13.3356 9.35624 13.3356 9.48585 13.2167C9.47896 13.1936 9.47758 13.1629 9.47999 13.1329C9.04566 13.1874 9.04566 13.1874 8.6844 13.2491ZM8.67096 13.2912C8.66269 13.3118 8.65097 13.3315 8.63821 13.3453C8.66372 13.5845 8.66372 13.5845 8.6975 13.8296C8.7044 13.8251 8.7106 13.8265 8.71819 13.8227C8.75266 13.8182 8.77885 13.8554 8.78368 13.9099C8.98361 13.7003 8.98361 13.7003 9.20422 13.4797C8.91639 13.3777 8.91639 13.3777 8.67096 13.2912ZM8.62098 13.3635C8.61477 13.3677 8.60788 13.3718 8.60271 13.3701C8.59409 13.3735 8.5872 13.3718 8.5803 13.3701C8.46276 13.8827 8.46276 13.8827 8.37106 14.4032C8.50274 14.236 8.50274 14.236 8.64924 14.0616C8.63752 14.0381 8.63166 14.0044 8.63442 13.9664C8.63787 13.9178 8.65648 13.8716 8.67992 13.8482C8.64752 13.5976 8.64752 13.5976 8.62098 13.3635ZM8.78368 13.9475C8.77989 14.0002 8.76127 14.0454 8.7368 14.0685C8.82091 14.5032 8.82091 14.5032 8.92742 14.9513C8.94018 14.9458 8.95362 14.9406 8.96775 14.9399C8.98223 14.9447 8.99637 14.9444 9.00946 14.9537C9.2025 14.2656 9.2025 14.2656 9.44311 13.5611C9.33418 13.5262 9.33418 13.5262 9.23146 13.4873C8.99671 13.7189 8.99671 13.7189 8.78368 13.9475ZM8.71853 14.0874C8.71164 14.0919 8.70543 14.0909 8.69785 14.0954C8.68509 14.0936 8.67268 14.0919 8.66303 14.0799C8.50998 14.2588 8.50998 14.2588 8.37279 14.4315C8.59547 14.7165 8.59547 14.7165 8.86675 15.0244C8.87744 14.9985 8.89192 14.9778 8.90915 14.9671C8.80298 14.5128 8.80298 14.5128 8.71853 14.0874ZM10.0619 16.2557C10.0936 16.2574 10.1243 16.2767 10.1494 16.3067C10.5038 15.9523 10.5038 15.9523 10.8992 15.5721C10.8943 15.5569 10.8912 15.5414 10.8905 15.5283C9.89881 15.3608 9.89881 15.3608 9.10495 15.2008C9.10254 15.2305 9.09633 15.2608 9.08668 15.2815C9.50033 15.7751 9.50033 15.7751 9.98085 16.2901C9.99981 16.265 10.0291 16.2543 10.0619 16.2557ZM11.0326 15.357C11.1091 15.3604 11.1732 15.4246 11.1839 15.508C11.5875 15.5211 11.5875 15.5211 12.0081 15.5307C11.6237 15.1678 11.6237 15.1678 11.2563 14.8099C11.239 14.8161 11.2215 14.8186 11.2028 14.8186C11.188 14.8186 11.1742 14.8189 11.1601 14.813C11.0946 15.0857 11.0946 15.0857 11.0326 15.357ZM11.1853 15.5493C11.1798 15.611 11.1425 15.6652 11.0894 15.6807C11.7789 16.8096 11.7789 16.8096 12.5041 17.8703C12.5262 17.8641 12.5469 17.8599 12.5717 17.862C12.633 17.8648 12.6903 17.9006 12.7213 17.9496C13.4331 17.7462 13.4331 17.7462 14.1725 17.5125C14.1656 17.4935 14.1642 17.4728 14.1629 17.4518C14.1642 17.4363 14.166 17.4211 14.1677 17.4063C13.1081 16.5183 13.1081 16.5183 12.0529 15.5718C11.6096 15.5614 11.6096 15.5614 11.1853 15.5493ZM10.8919 15.489C10.9002 15.4259 10.9409 15.377 10.995 15.3608C11.0584 15.0833 11.0584 15.0833 11.1256 14.801C11.0588 14.7744 11.0074 14.7114 10.9881 14.6355C9.93501 14.903 9.93501 14.903 9.10495 15.1371C9.10564 15.1419 9.10633 15.1516 9.10667 15.1612C9.10667 15.1664 9.10667 15.1664 9.10667 15.1664C9.90019 15.3232 9.90019 15.3232 10.8919 15.489ZM17.8526 14.0399C17.8209 14.0699 17.7792 14.0898 17.7323 14.0874C17.6575 14.0826 17.59 14.0285 17.5538 13.9537C16.9722 14.2308 16.9722 14.2308 16.3297 14.529C17.5158 14.7937 17.5158 14.7937 18.4834 15.023C18.4903 14.992 18.5021 14.9606 18.5176 14.934C18.2046 14.499 18.2046 14.499 17.8526 14.0399ZM17.5389 13.9154C17.531 13.8913 17.5265 13.8658 17.5255 13.8396C17.5207 13.7569 17.5507 13.6893 17.5993 13.65C17.2694 13.0561 17.2694 13.0561 16.9181 12.4742C16.9005 12.479 16.8833 12.4832 16.8626 12.4807C16.7961 12.4735 16.7347 12.4204 16.7127 12.357C15.7268 12.4232 15.7268 12.4232 14.6506 12.5335C14.651 12.5983 14.6241 12.6565 14.5793 12.6993C15.1556 13.2915 15.7237 13.9006 16.2708 14.5128C16.9367 14.2012 16.9367 14.2012 17.5389 13.9154ZM18.7141 15.2619C18.6892 15.2884 18.6592 15.3039 18.6268 15.3053C18.5748 15.3091 18.5296 15.2719 18.5028 15.2143C17.9398 15.6748 17.9398 15.6748 17.2897 16.1615C17.2983 16.1805 17.3025 16.2057 17.3042 16.2298C18.2718 16.0671 18.2718 16.0671 19.0305 15.9023C18.8843 15.5869 18.8843 15.5869 18.7141 15.2619ZM18.4907 15.186C18.4814 15.154 18.4759 15.1219 18.4769 15.0857C18.4769 15.0767 18.4776 15.0678 18.4783 15.0588C17.4893 14.8255 17.4893 14.8255 16.2752 14.5587C16.0433 14.9516 16.0433 14.9516 15.8037 15.3518C15.864 15.3987 15.9023 15.4742 15.9009 15.5587C15.9002 15.6004 15.8895 15.641 15.8716 15.6762C16.4104 15.9323 16.4104 15.9323 16.9133 16.1715C16.954 16.0978 17.0277 16.044 17.1074 16.0402C17.1798 16.0354 17.2411 16.0702 17.2756 16.1291C17.9267 15.6431 17.9267 15.6431 18.4907 15.186ZM16.8912 16.3908C16.8799 16.3622 16.8747 16.3298 16.8768 16.2943C16.8792 16.2629 16.8857 16.2336 16.8968 16.2067C16.3914 15.9675 16.3914 15.9675 15.8502 15.7117C15.8037 15.7762 15.7296 15.8193 15.6458 15.822C15.6037 15.8234 15.5651 15.8124 15.5307 15.7948C15.0522 16.5431 15.0522 16.5431 14.5717 17.2591C14.6158 17.2887 14.6479 17.3315 14.6637 17.3808C15.1411 17.2784 15.1411 17.2784 15.6117 17.1681C16.2666 16.7834 16.2666 16.7834 16.8912 16.3908ZM14.4207 17.2146C14.4652 17.2136 14.5048 17.2229 14.5386 17.2395C15.0184 16.5225 15.0184 16.5225 15.4969 15.7734C15.44 15.731 15.4021 15.6641 15.3969 15.5876C14.2997 15.5945 13.1877 15.59 12.1125 15.5742C13.146 16.4983 13.146 16.4983 14.1801 17.3673C14.2184 17.2794 14.3121 17.216 14.4207 17.2146ZM9.70784 12.8875C9.76782 12.9044 9.80919 12.9682 9.80333 13.0599C10.1856 13.0147 10.1856 13.0147 10.6055 12.9709C10.2287 12.5814 10.2287 12.5814 9.90674 12.2391C9.80333 12.5611 9.80333 12.5611 9.70784 12.8875ZM9.79816 13.0967C9.79195 13.1333 9.7792 13.1671 9.76093 13.1988C10.0822 13.5152 10.0822 13.5152 10.4472 13.8565C10.531 13.429 10.531 13.429 10.6258 13.0033C10.1935 13.0464 10.1935 13.0464 9.79816 13.0967ZM9.74094 13.2301C9.70681 13.2756 9.66131 13.308 9.61374 13.3156C9.59547 13.3194 9.57892 13.3187 9.5641 13.3136C9.51998 13.427 9.51998 13.427 9.47758 13.5366C9.89881 13.6821 9.89881 13.6821 10.3797 13.8458C10.0419 13.5238 10.0419 13.5238 9.74094 13.2301ZM9.54307 13.3015C9.52239 13.2898 9.50619 13.2691 9.49481 13.245C9.37555 13.3518 9.37555 13.3518 9.25869 13.4642C9.35486 13.4966 9.35486 13.4966 9.45517 13.53C9.49826 13.4156 9.49826 13.4156 9.54307 13.3015ZM12.5824 12.5735C12.5651 12.6941 12.4548 12.7937 12.3276 12.7986C12.248 12.8027 12.1798 12.7693 12.1384 12.7141C11.6224 13.0678 11.6224 13.0678 11.1267 13.4246C11.6165 13.659 11.6165 13.659 12.1411 13.9072C13.1522 13.2639 13.1522 13.2639 14.1742 12.6514C14.1608 12.63 14.1515 12.6066 14.1446 12.5817C13.3552 12.5686 13.3552 12.5686 12.5824 12.5735ZM12.1194 12.6838C12.1118 12.6665 12.1046 12.65 12.1005 12.6317C11.3635 12.8068 11.3635 12.8068 10.6796 12.994C10.8802 13.196 10.8802 13.196 11.0943 13.4053C11.5951 13.044 11.5951 13.044 12.1194 12.6838ZM14.55 12.7245C14.5255 12.7413 14.4979 12.7544 14.4679 12.762C15.0298 14.0233 15.0298 14.0233 15.5727 15.318C15.5986 15.3084 15.6258 15.3025 15.6544 15.3022C15.6958 15.3032 15.7354 15.3125 15.7702 15.3305C16.0102 14.9309 16.0102 14.9309 16.2418 14.5397C15.4111 13.621 15.4111 13.621 14.55 12.7245ZM14.4276 12.7693C14.4166 12.77 14.408 12.7706 14.3976 12.7703C14.3173 12.7693 14.2466 12.7355 14.1994 12.6831C13.186 13.2898 13.186 13.2898 12.1832 13.9261C13.7885 14.689 13.7885 14.689 15.4193 15.4618C15.4435 15.407 15.4848 15.3618 15.5362 15.3339C14.9905 14.0354 14.9905 14.0354 14.4276 12.7693ZM15.3976 15.5462C15.399 15.5307 15.4021 15.5149 15.4059 15.5007C13.7609 14.7214 13.7609 14.7214 12.1439 13.952C11.7706 14.1995 11.7706 14.1995 11.41 14.4442C11.4266 14.478 11.4355 14.518 11.4348 14.5618C11.4341 14.6641 11.3769 14.7551 11.2959 14.7937C11.673 15.1602 11.673 15.1602 12.0667 15.5307C13.7185 15.5518 13.7185 15.5518 15.3976 15.5462ZM11.2077 14.3098C11.2828 14.3098 11.35 14.3463 11.3914 14.4097C11.7406 14.1715 11.7406 14.1715 12.1018 13.932C11.5789 13.6852 11.5789 13.6852 11.0901 13.4532C10.7809 13.6721 10.7809 13.6721 10.4845 13.8927C10.754 14.1374 10.754 14.1374 11.0408 14.3946C11.0825 14.3442 11.1418 14.3129 11.2077 14.3098ZM10.9812 14.5962C10.9802 14.5869 10.9798 14.5745 10.9798 14.5655C10.9802 14.5142 10.9946 14.4673 11.0188 14.4249C10.7275 14.166 10.7275 14.166 10.4545 13.9147C9.69923 14.5169 9.69923 14.5169 9.08944 15.0643C9.09323 15.074 9.09668 15.0885 9.09978 15.1033C9.92915 14.8668 9.92915 14.8668 10.9812 14.5962ZM9.02946 14.9682C9.04807 14.9823 9.06462 15.0064 9.07772 15.0354C9.67751 14.4897 9.67751 14.4897 10.419 13.8982C9.90915 13.7245 9.90915 13.7245 9.46483 13.5721C9.22353 14.2732 9.22353 14.2732 9.02946 14.9682ZM10.6541 13.0188C10.5624 13.4335 10.5624 13.4335 10.4793 13.8537C10.7651 13.6407 10.7651 13.6407 11.0619 13.429C10.8512 13.2208 10.8512 13.2208 10.6541 13.0188Z" fill="white"/>
</g>
<path d="M42.3039 30L36.6378 8.89388H40.774L45.2219 26.8837H44.1454L48.7915 8.89388H52.7861L57.404 26.8837H56.3274L60.7753 8.89388H64.9115L59.2454 30H54.8259L50.1514 12.4918H51.3979L46.7234 30H42.3039ZM71.9177 30.34C70.3312 30.34 68.9431 29.9811 67.7532 29.2634C66.5633 28.5457 65.6378 27.573 64.9768 26.3454C64.3158 25.1177 63.9852 23.7579 63.9852 22.2658C63.9852 20.7171 64.3158 19.3478 64.9768 18.1579C65.6567 16.9491 66.5727 15.9954 67.7248 15.2965C68.8958 14.5977 70.199 14.2483 71.6344 14.2483C72.8432 14.2483 73.9009 14.4466 74.8074 14.8433C75.7329 15.2399 76.5167 15.7876 77.1589 16.4864C77.801 17.1852 78.2921 17.9879 78.632 18.8945C78.972 19.7822 79.142 20.7454 79.142 21.7842C79.142 22.0486 79.1231 22.3225 79.0853 22.6058C79.0664 22.8891 79.0192 23.1346 78.9437 23.3424H67.0449V20.5093H76.8472L75.0907 21.8409C75.2607 20.9721 75.2135 20.1977 74.9491 19.5178C74.7036 18.8378 74.288 18.2996 73.7026 17.9029C73.1359 17.5063 72.4466 17.308 71.6344 17.308C70.8601 17.308 70.1707 17.5063 69.5663 17.9029C68.9619 18.2807 68.4992 18.8473 68.1781 19.6028C67.8759 20.3393 67.7626 21.2365 67.8382 22.2941C67.7626 23.2385 67.8854 24.079 68.2065 24.8155C68.5464 25.5332 69.0375 26.0904 69.6796 26.487C70.3407 26.8837 71.0962 27.082 71.9461 27.082C72.796 27.082 73.5137 26.9025 74.0992 26.5437C74.7036 26.1848 75.1757 25.7032 75.5157 25.0988L78.5187 26.572C78.2165 27.3086 77.7444 27.9602 77.1022 28.5268C76.46 29.0934 75.6951 29.5373 74.8074 29.8583C73.9386 30.1794 72.9754 30.34 71.9177 30.34ZM84.1576 30V8.55391H87.8688V17.6196L87.3589 17.0814C87.7177 16.1559 88.3032 15.4571 89.1154 14.9849C89.9464 14.4938 90.9096 14.2483 92.0051 14.2483C93.1383 14.2483 94.1393 14.4938 95.0081 14.9849C95.8958 15.476 96.5851 16.1653 97.0762 17.053C97.5673 17.9218 97.8128 18.9323 97.8128 20.0844V30H94.1015V20.9626C94.1015 20.2827 93.9693 19.6972 93.7049 19.2061C93.4405 18.7151 93.0722 18.3373 92.6 18.0729C92.1467 17.7896 91.6084 17.648 90.9852 17.648C90.3808 17.648 89.8425 17.7896 89.3703 18.0729C88.8982 18.3373 88.5299 18.7151 88.2655 19.2061C88.001 19.6972 87.8688 20.2827 87.8688 20.9626V30H84.1576ZM99.5345 30V14.5883H103.246V30H99.5345ZM99.5345 12.8601V8.89388H103.246V12.8601H99.5345ZM105.256 30V14.5883H108.741V18.0163L108.457 17.5063C108.816 16.3542 109.373 15.5515 110.129 15.0982C110.903 14.6449 111.829 14.4183 112.905 14.4183H113.812V17.7046H112.48C111.423 17.7046 110.573 18.0351 109.93 18.6962C109.288 19.3383 108.967 20.2449 108.967 21.4159V30H105.256ZM121.745 30.34C120.158 30.34 118.77 29.9811 117.58 29.2634C116.39 28.5457 115.465 27.573 114.804 26.3454C114.143 25.1177 113.812 23.7579 113.812 22.2658C113.812 20.7171 114.143 19.3478 114.804 18.1579C115.484 16.9491 116.4 15.9954 117.552 15.2965C118.723 14.5977 120.026 14.2483 121.462 14.2483C122.67 14.2483 123.728 14.4466 124.635 14.8433C125.56 15.2399 126.344 15.7876 126.986 16.4864C127.628 17.1852 128.119 17.9879 128.459 18.8945C128.799 19.7822 128.969 20.7454 128.969 21.7842C128.969 22.0486 128.95 22.3225 128.912 22.6058C128.894 22.8891 128.846 23.1346 128.771 23.3424H116.872V20.5093H126.674L124.918 21.8409C125.088 20.9721 125.041 20.1977 124.776 19.5178C124.531 18.8378 124.115 18.2996 123.53 17.9029C122.963 17.5063 122.274 17.308 121.462 17.308C120.687 17.308 119.998 17.5063 119.393 17.9029C118.789 18.2807 118.326 18.8473 118.005 19.6028C117.703 20.3393 117.59 21.2365 117.665 22.2941C117.59 23.2385 117.713 24.079 118.034 24.8155C118.374 25.5332 118.865 26.0904 119.507 26.487C120.168 26.8837 120.923 27.082 121.773 27.082C122.623 27.082 123.341 26.9025 123.926 26.5437C124.531 26.1848 125.003 25.7032 125.343 25.0988L128.346 26.572C128.044 27.3086 127.571 27.9602 126.929 28.5268C126.287 29.0934 125.522 29.5373 124.635 29.8583C123.766 30.1794 122.803 30.34 121.745 30.34ZM132.122 30V26.0337H135.862V30H132.122ZM144.331 30.34C143.254 30.34 142.319 30.1605 141.526 29.8017C140.733 29.4428 140.119 28.9329 139.685 28.2718C139.25 27.5919 139.033 26.8081 139.033 25.9204C139.033 25.0705 139.222 24.315 139.6 23.654C139.977 22.9741 140.563 22.4075 141.356 21.9542C142.149 21.5009 143.15 21.1798 144.359 20.9909L149.402 20.1694V23.0024L145.067 23.739C144.331 23.8712 143.783 24.1073 143.424 24.4472C143.065 24.7872 142.886 25.2311 142.886 25.7788C142.886 26.3076 143.084 26.7326 143.481 27.0536C143.896 27.3558 144.406 27.5069 145.011 27.5069C145.785 27.5069 146.465 27.3464 147.051 27.0253C147.655 26.6853 148.118 26.2226 148.439 25.6371C148.779 25.0516 148.949 24.4095 148.949 23.7107V19.7444C148.949 19.0834 148.684 18.5356 148.155 18.1012C147.645 17.648 146.966 17.4213 146.116 17.4213C145.322 17.4213 144.614 17.6385 143.991 18.0729C143.386 18.4884 142.943 19.0456 142.659 19.7444L139.628 18.2712C139.93 17.4591 140.402 16.7603 141.044 16.1748C141.706 15.5704 142.48 15.0982 143.368 14.7583C144.255 14.4183 145.218 14.2483 146.257 14.2483C147.523 14.2483 148.637 14.4844 149.6 14.9566C150.563 15.4099 151.31 16.052 151.838 16.883C152.386 17.6952 152.66 18.649 152.66 19.7444V30H149.147V27.3653L149.94 27.3086C149.544 27.9697 149.071 28.5268 148.524 28.9801C147.976 29.4145 147.353 29.7545 146.654 30C145.955 30.2266 145.181 30.34 144.331 30.34ZM154.674 30V14.5883H158.385V30H154.674ZM154.674 12.8601V8.89388H158.385V12.8601H154.674Z" fill="white"/>
</svg>
